<svg xmlns="http://www.w3.org/2000/svg" xmlns:xlink="http://www.w3.org/1999/xlink" width="200" zoomAndPan="magnify" viewBox="0 0 150 52.499999" height="70" preserveAspectRatio="xMidYMid meet" version="1.0"><defs><g/><clipPath id="32c9f59499"><path d="M 0.730469 7.429688 L 149.269531 7.429688 L 149.269531 42.347656 L 0.730469 42.347656 Z M 0.730469 7.429688 " clip-rule="nonzero"/></clipPath></defs><g clip-path="url(#32c9f59499)"><path stroke-linecap="butt" transform="matrix(0.742924, 0, 0, 0.7459, 0.728548, 7.429245)" fill="none" stroke-linejoin="miter" d="M 0.00258536 0.000593544 L 199.940893 0.000593544 L 199.940893 46.813791 L 0.00258536 46.813791 L 0.00258536 0.000593544 " stroke="#f2f9ff" stroke-width="2" stroke-opacity="1" stroke-miterlimit="4"/></g><g fill="#bc6ff1" fill-opacity="1"><g transform="translate(10.700003, 30.53279)"><g><path d="M 10.53125 -14.0625 C 10.882812 -13.78125 10.992188 -13.390625 10.859375 -12.890625 L 9.515625 -7.859375 C 9.285156 -6.972656 8.457031 -6.53125 7.03125 -6.53125 C 6.96875 -6.53125 6.914062 -6.535156 6.875 -6.546875 C 6.84375 -6.546875 6.8125 -6.546875 6.78125 -6.546875 C 6.75 -6.554688 6.71875 -6.5625 6.6875 -6.5625 C 6.695312 -6.4375 6.71875 -6.289062 6.75 -6.125 C 6.789062 -5.96875 6.832031 -5.785156 6.875 -5.578125 C 6.925781 -5.367188 6.976562 -5.148438 7.03125 -4.921875 C 7.082031 -4.691406 7.132812 -4.453125 7.1875 -4.203125 C 7.3125 -3.703125 7.429688 -3.164062 7.546875 -2.59375 C 7.609375 -2.3125 7.671875 -2.03125 7.734375 -1.75 C 7.796875 -1.46875 7.851562 -1.1875 7.90625 -0.90625 L 8.8125 3.3125 L 5.390625 -0.1875 L 3.796875 -7.828125 L 1.765625 -0.234375 L -0.859375 -0.234375 L 2.546875 -12.953125 L 1.3125 -14.484375 L 9.359375 -14.484375 C 9.859375 -14.484375 10.25 -14.34375 10.53125 -14.0625 Z M 8.109375 -12.421875 L 5.03125 -12.421875 L 4 -8.546875 L 7.0625 -8.546875 Z M 8.109375 -12.421875 "/></g></g></g><g fill="#bc6ff1" fill-opacity="1"><g transform="translate(21.917645, 30.53279)"><g><path d="M 5.859375 -14.3125 L 8.234375 -14.3125 L 7.75 3.5 L 5.25 -0.046875 L 5.40625 -2.984375 L 2.65625 -2.984375 L 1.25 -0.046875 L -1.4375 -0.046875 L 5.1875 -13 L 4.140625 -14.3125 Z M 5.734375 -9.328125 L 3.640625 -5.046875 L 5.546875 -5.046875 Z M 5.734375 -9.328125 "/></g></g></g><g fill="#bc6ff1" fill-opacity="1"><g transform="translate(31.233992, 30.53279)"><g><path d="M 11.546875 -14.3125 L 10.28125 -12.25 L 5.59375 -12.25 L 5 -10.09375 L 8.640625 -5.875 C 9.003906 -5.4375 9.113281 -4.953125 8.96875 -4.421875 L 8.140625 -1.359375 C 8.046875 -0.992188 7.800781 -0.671875 7.40625 -0.390625 C 7.03125 -0.179688 6.613281 -0.078125 6.15625 -0.078125 L -1.125 -0.078125 L 0.125 -2.078125 L 5.71875 -2.078125 L 6.421875 -4.640625 L 2.796875 -8.84375 C 2.421875 -9.3125 2.304688 -9.800781 2.453125 -10.3125 L 3.0625 -12.625 L 1.703125 -14.3125 Z M 11.546875 -14.3125 "/></g></g></g><g fill="#bc6ff1" fill-opacity="1"><g transform="translate(41.572286, 30.53279)"><g><path d="M 2.125 -14.4375 L 10.34375 -14.4375 L 9.40625 -10.859375 L 8.921875 -12.390625 L 7 -12.390625 L 3.734375 -0.203125 L 0.140625 3.359375 L 4.390625 -12.390625 L 2.9375 -12.390625 L 1.125 -10.71875 Z M 2.125 -14.4375 "/></g></g></g><g fill="#bc6ff1" fill-opacity="1"><g transform="translate(51.01935, 30.53279)"><g><path d="M 9.28125 -9.25 L 6.640625 -9.25 L 7.4375 -12.234375 L 4.40625 -12.234375 L 1.6875 -2.0625 L 4.71875 -2.0625 L 5.6875 -5.65625 L 3.765625 -5.65625 L 4.296875 -7.671875 L 8.859375 -7.671875 L 7.15625 -1.34375 C 7.0625 -0.945312 6.8125 -0.625 6.40625 -0.375 C 6.03125 -0.15625 5.609375 -0.046875 5.140625 -0.046875 L 0.421875 -0.046875 C -0.078125 -0.046875 -0.460938 -0.175781 -0.734375 -0.4375 C -1.085938 -0.757812 -1.195312 -1.148438 -1.0625 -1.609375 L 1.953125 -12.859375 L 0.796875 -14.28125 L 8.703125 -14.28125 C 9.210938 -14.28125 9.609375 -14.144531 9.890625 -13.875 C 10.203125 -13.582031 10.304688 -13.1875 10.203125 -12.6875 Z M 9.28125 -9.25 "/></g></g></g><g fill="#bc6ff1" fill-opacity="1"><g transform="translate(60.88232, 30.53279)"><g><path d="M 9.796875 -14.28125 L 7.96875 -12.234375 L 5.015625 -12.234375 L 3.953125 -8.296875 L 7.796875 -8.296875 L 5.984375 -6.234375 L 3.40625 -6.234375 L 2.28125 -2.0625 L 6.578125 -2.0625 L 7.1875 -0.046875 L -0.875 -0.046875 L 2.40625 -12.34375 L 0.828125 -14.28125 Z M 9.796875 -14.28125 "/></g></g></g><g fill="#bc6ff1" fill-opacity="1"><g transform="translate(70.198667, 30.53279)"><g><path d="M 3.03125 -2.078125 L 9.328125 -2.078125 L 6.640625 -0.078125 L -0.125 -0.078125 L 3.25 -12.625 L 1.875 -14.28125 L 6.296875 -14.28125 Z M 3.03125 -2.078125 "/></g></g></g><g fill="#bc6ff1" fill-opacity="1"><g transform="translate(79.384303, 30.53279)"><g><path d="M 9.796875 -14.28125 L 7.96875 -12.234375 L 5.015625 -12.234375 L 3.953125 -8.296875 L 7.796875 -8.296875 L 5.984375 -6.234375 L 3.40625 -6.234375 L 2.28125 -2.0625 L 6.578125 -2.0625 L 7.1875 -0.046875 L -0.875 -0.046875 L 2.40625 -12.34375 L 0.828125 -14.28125 Z M 9.796875 -14.28125 "/></g></g></g><g fill="#bc6ff1" fill-opacity="1"><g transform="translate(88.700651, 30.53279)"><g/></g></g><g fill="#bc6ff1" fill-opacity="1"><g transform="translate(94.095576, 30.53279)"><g><path d="M 8.5625 -14.328125 L 11.203125 -14.328125 L 4.046875 -0.078125 L 1.71875 -0.078125 L 2.125 -12.34375 L 0.515625 -14.328125 L 4.796875 -14.328125 L 4.28125 -5.40625 Z M 8.5625 -14.328125 "/></g></g></g><g fill="#bc6ff1" fill-opacity="1"><g transform="translate(104.219974, 30.53279)"><g><path d="M 5.734375 -14.28125 L 1.9375 -0.046875 L -0.6875 -0.046875 L 2.703125 -12.6875 L 1.421875 -14.28125 Z M 5.734375 -14.28125 "/></g></g></g><g fill="#bc6ff1" fill-opacity="1"><g transform="translate(108.842507, 30.53279)"><g><path d="M 10.078125 -13.484375 C 10.722656 -12.910156 10.925781 -12.164062 10.6875 -11.25 L 8.421875 -2.8125 C 8.210938 -1.976562 7.675781 -1.300781 6.8125 -0.78125 C 6.007812 -0.289062 5.078125 -0.046875 4.015625 -0.046875 L -0.75 -0.046875 L 2.515625 -12.234375 L 0.828125 -14.28125 L 7.578125 -14.28125 C 8.660156 -14.28125 9.492188 -14.015625 10.078125 -13.484375 Z M 8.109375 -11.390625 C 8.148438 -11.535156 8.15625 -11.65625 8.125 -11.75 C 8.09375 -11.832031 8.039062 -11.898438 7.96875 -11.953125 C 7.769531 -12.140625 7.441406 -12.234375 6.984375 -12.234375 L 5.140625 -12.234375 L 2.40625 -2.0625 L 3.90625 -2.0625 C 4.394531 -2.0625 4.847656 -2.175781 5.265625 -2.40625 C 5.597656 -2.601562 5.804688 -2.851562 5.890625 -3.15625 Z M 8.109375 -11.390625 "/></g></g></g><g fill="#bc6ff1" fill-opacity="1"><g transform="translate(119.311512, 30.53279)"><g><path d="M 9.796875 -14.28125 L 7.96875 -12.234375 L 5.015625 -12.234375 L 3.953125 -8.296875 L 7.796875 -8.296875 L 5.984375 -6.234375 L 3.40625 -6.234375 L 2.28125 -2.0625 L 6.578125 -2.0625 L 7.1875 -0.046875 L -0.875 -0.046875 L 2.40625 -12.34375 L 0.828125 -14.28125 Z M 9.796875 -14.28125 "/></g></g></g><g fill="#bc6ff1" fill-opacity="1"><g transform="translate(128.627859, 30.53279)"><g><path d="M 10.96875 -13.921875 C 11.3125 -13.585938 11.421875 -13.191406 11.296875 -12.734375 L 8.234375 -1.359375 C 8.140625 -0.960938 7.890625 -0.640625 7.484375 -0.390625 C 7.109375 -0.179688 6.691406 -0.078125 6.234375 -0.078125 L 1.21875 -0.078125 C 0.6875 -0.078125 0.285156 -0.207031 0.015625 -0.46875 C -0.316406 -0.769531 -0.425781 -1.15625 -0.3125 -1.625 L 2.65625 -12.703125 L 1.359375 -14.3125 L 9.78125 -14.3125 C 10.238281 -14.3125 10.632812 -14.179688 10.96875 -13.921875 Z M 8.546875 -12.25 L 5.171875 -12.25 L 2.4375 -2.078125 L 5.8125 -2.078125 Z M 8.546875 -12.25 "/></g></g></g><path stroke-linecap="round" transform="matrix(0.745253, 0, 0, 0.742924, 102.35407, 39.802727)" fill="none" stroke-linejoin="miter" d="M 1.998891 2.000655 L 42.86691 2.000655 " stroke="#000000" stroke-width="4" stroke-opacity="1" stroke-miterlimit="4"/><g fill="#bc6ff1" fill-opacity="1"><g transform="translate(103.245173, 46.504777)"><g><path d="M 43.703125 -1.953125 C 43.710938 -1.941406 43.722656 -1.925781 43.734375 -1.90625 C 43.753906 -1.894531 43.765625 -1.878906 43.765625 -1.859375 C 43.742188 -1.828125 43.726562 -1.800781 43.71875 -1.78125 C 43.71875 -1.769531 43.707031 -1.753906 43.6875 -1.734375 C 43.613281 -1.691406 43.535156 -1.671875 43.453125 -1.671875 C 43.367188 -1.660156 43.289062 -1.65625 43.21875 -1.65625 C 43.1875 -1.65625 43.15625 -1.65625 43.125 -1.65625 C 42.738281 -1.632812 42.363281 -1.617188 42 -1.609375 C 41.113281 -1.566406 40.238281 -1.53125 39.375 -1.5 C 37.6875 -1.414062 35.992188 -1.316406 34.296875 -1.203125 C 31.929688 -1.046875 29.566406 -0.851562 27.203125 -0.625 C 25.515625 -0.4375 23.828125 -0.242188 22.140625 -0.046875 C 21.953125 -0.0351562 21.757812 -0.015625 21.5625 0.015625 C 21.363281 0.046875 21.171875 0.0664062 20.984375 0.078125 C 19.847656 0.210938 18.707031 0.363281 17.5625 0.53125 L 17.53125 0.53125 C 16.863281 0.625 16.195312 0.726562 15.53125 0.84375 C 15.28125 0.882812 15.035156 0.921875 14.796875 0.953125 C 14.492188 1.003906 14.203125 1.101562 13.921875 1.25 C 11.703125 2.382812 9.429688 3.3125 7.109375 4.03125 C 6.441406 4.238281 5.769531 4.425781 5.09375 4.59375 C 4.425781 4.769531 3.75 4.90625 3.0625 5 C 2.84375 5.03125 2.617188 5.054688 2.390625 5.078125 C 2.054688 5.128906 1.734375 5.132812 1.421875 5.09375 C 1.296875 5.070312 1.171875 5.046875 1.046875 5.015625 C 0.941406 4.984375 0.851562 4.941406 0.78125 4.890625 C 0.707031 4.835938 0.664062 4.75 0.65625 4.625 C 0.664062 4.507812 0.703125 4.40625 0.765625 4.3125 C 0.835938 4.226562 0.921875 4.148438 1.015625 4.078125 C 1.285156 3.859375 1.59375 3.695312 1.9375 3.59375 C 2.09375 3.519531 2.265625 3.457031 2.453125 3.40625 C 2.992188 3.1875 3.554688 2.988281 4.140625 2.8125 C 6.429688 2.144531 8.726562 1.59375 11.03125 1.15625 C 11.164062 1.125 11.300781 1.101562 11.4375 1.09375 C 12.164062 0.945312 12.882812 0.8125 13.59375 0.6875 C 13.84375 0.644531 14.085938 0.566406 14.328125 0.453125 C 15.179688 -0.00390625 16.007812 -0.492188 16.8125 -1.015625 C 17.613281 -1.546875 18.390625 -2.128906 19.140625 -2.765625 C 19.773438 -3.273438 20.335938 -3.851562 20.828125 -4.5 C 21.109375 -4.851562 21.328125 -5.238281 21.484375 -5.65625 C 21.671875 -6.269531 21.554688 -6.753906 21.140625 -7.109375 C 20.828125 -7.347656 20.476562 -7.519531 20.09375 -7.625 C 19.582031 -7.78125 19.054688 -7.890625 18.515625 -7.953125 C 17.984375 -8.015625 17.441406 -8.054688 16.890625 -8.078125 C 15.359375 -8.109375 13.800781 -8.046875 12.21875 -7.890625 C 12.164062 -7.878906 12.113281 -7.875 12.0625 -7.875 C 12 -7.863281 11.929688 -7.851562 11.859375 -7.84375 C 11.734375 -7.800781 11.644531 -7.703125 11.59375 -7.546875 C 11.5625 -7.484375 11.539062 -7.425781 11.53125 -7.375 C 11.46875 -7.226562 11.414062 -7.085938 11.375 -6.953125 C 10.96875 -5.742188 10.570312 -4.546875 10.1875 -3.359375 C 9.851562 -2.335938 9.507812 -1.320312 9.15625 -0.3125 C 9.164062 -0.28125 9.160156 -0.253906 9.140625 -0.234375 C 9.117188 -0.0976562 9.078125 0.0234375 9.015625 0.140625 C 8.941406 0.234375 8.851562 0.28125 8.75 0.28125 C 8.6875 0.300781 8.625 0.304688 8.5625 0.296875 C 8.4375 0.253906 8.390625 0.175781 8.421875 0.0625 C 8.472656 -0.207031 8.546875 -0.46875 8.640625 -0.71875 C 9.117188 -2.300781 9.609375 -3.882812 10.109375 -5.46875 C 10.273438 -5.96875 10.4375 -6.46875 10.59375 -6.96875 C 10.601562 -7.019531 10.617188 -7.0625 10.640625 -7.09375 C 10.679688 -7.21875 10.710938 -7.332031 10.734375 -7.4375 C 10.773438 -7.601562 10.71875 -7.675781 10.5625 -7.65625 C 10.476562 -7.65625 10.394531 -7.648438 10.3125 -7.640625 C 10.207031 -7.640625 10.101562 -7.632812 10 -7.625 C 9.988281 -7.625 9.96875 -7.625 9.9375 -7.625 C 9.800781 -7.613281 9.679688 -7.613281 9.578125 -7.625 C 9.472656 -7.644531 9.40625 -7.722656 9.375 -7.859375 C 9.351562 -8.003906 9.382812 -8.117188 9.46875 -8.203125 C 9.5625 -8.296875 9.664062 -8.375 9.78125 -8.4375 C 9.820312 -8.457031 9.859375 -8.476562 9.890625 -8.5 C 10.210938 -8.675781 10.539062 -8.84375 10.875 -9 C 10.90625 -9.019531 10.941406 -9.035156 10.984375 -9.046875 C 11.234375 -9.160156 11.410156 -9.359375 11.515625 -9.640625 C 11.953125 -10.847656 12.390625 -12.054688 12.828125 -13.265625 C 12.984375 -13.679688 13.132812 -14.097656 13.28125 -14.515625 C 13.3125 -14.578125 13.332031 -14.632812 13.34375 -14.6875 C 13.382812 -14.8125 13.4375 -14.9375 13.5 -15.0625 C 13.5625 -15.207031 13.664062 -15.273438 13.8125 -15.265625 C 13.875 -15.285156 13.9375 -15.289062 14 -15.28125 C 14.144531 -15.226562 14.203125 -15.128906 14.171875 -14.984375 C 14.171875 -14.984375 14.164062 -14.976562 14.15625 -14.96875 C 14.09375 -14.644531 14.003906 -14.335938 13.890625 -14.046875 C 13.648438 -13.316406 13.398438 -12.585938 13.140625 -11.859375 C 13.054688 -11.597656 12.96875 -11.347656 12.875 -11.109375 C 12.8125 -10.984375 12.765625 -10.863281 12.734375 -10.75 C 12.648438 -10.539062 12.578125 -10.320312 12.515625 -10.09375 C 12.515625 -10.09375 12.507812 -10.085938 12.5 -10.078125 C 12.488281 -10.046875 12.476562 -10.007812 12.46875 -9.96875 C 12.46875 -9.9375 12.492188 -9.910156 12.546875 -9.890625 C 12.566406 -9.890625 12.59375 -9.882812 12.625 -9.875 L 12.65625 -9.890625 C 12.707031 -9.910156 12.757812 -9.9375 12.8125 -9.96875 C 12.832031 -9.976562 12.847656 -9.984375 12.859375 -9.984375 C 14.710938 -10.867188 16.5625 -11.773438 18.40625 -12.703125 C 20.257812 -13.628906 22.09375 -14.601562 23.90625 -15.625 C 23.9375 -15.65625 23.972656 -15.671875 24.015625 -15.671875 C 24.566406 -15.992188 25.117188 -16.316406 25.671875 -16.640625 C 26.222656 -16.972656 26.757812 -17.316406 27.28125 -17.671875 C 27.675781 -17.929688 28.035156 -18.234375 28.359375 -18.578125 C 29.078125 -19.335938 29.035156 -19.921875 28.234375 -20.328125 C 27.867188 -20.515625 27.472656 -20.640625 27.046875 -20.703125 C 26.617188 -20.773438 26.191406 -20.8125 25.765625 -20.8125 C 24.734375 -20.8125 23.703125 -20.738281 22.671875 -20.59375 L 22.640625 -20.59375 C 21.648438 -20.445312 20.644531 -20.257812 19.625 -20.03125 C 17.40625 -19.519531 15.203125 -18.820312 13.015625 -17.9375 C 11.015625 -17.144531 9.078125 -16.171875 7.203125 -15.015625 C 6.710938 -14.703125 6.238281 -14.363281 5.78125 -14 C 5.644531 -13.882812 5.519531 -13.785156 5.40625 -13.703125 C 5.332031 -13.660156 5.253906 -13.644531 5.171875 -13.65625 C 5.078125 -13.613281 4.992188 -13.625 4.921875 -13.6875 C 4.867188 -13.75 4.859375 -13.804688 4.890625 -13.859375 C 4.921875 -13.921875 4.96875 -13.976562 5.03125 -14.03125 C 5.40625 -14.382812 5.8125 -14.695312 6.25 -14.96875 C 6.257812 -14.96875 6.265625 -14.972656 6.265625 -14.984375 C 8.023438 -16.128906 9.847656 -17.101562 11.734375 -17.90625 C 14.472656 -19.070312 17.257812 -19.953125 20.09375 -20.546875 C 20.96875 -20.734375 21.847656 -20.890625 22.734375 -21.015625 C 23.691406 -21.148438 24.648438 -21.234375 25.609375 -21.265625 C 26.503906 -21.296875 27.367188 -21.207031 28.203125 -21 C 28.597656 -20.914062 28.957031 -20.75 29.28125 -20.5 C 29.53125 -20.28125 29.660156 -20.019531 29.671875 -19.71875 C 29.691406 -19.414062 29.59375 -19.097656 29.375 -18.765625 C 29.09375 -18.367188 28.75 -18.039062 28.34375 -17.78125 C 27.882812 -17.425781 27.410156 -17.09375 26.921875 -16.78125 C 26.429688 -16.476562 25.929688 -16.1875 25.421875 -15.90625 C 25.410156 -15.90625 25.390625 -15.890625 25.359375 -15.859375 C 23.617188 -14.847656 21.851562 -13.878906 20.0625 -12.953125 C 18.269531 -12.035156 16.460938 -11.148438 14.640625 -10.296875 C 14.335938 -10.148438 14.035156 -10 13.734375 -9.84375 C 13.304688 -9.632812 12.882812 -9.425781 12.46875 -9.21875 C 12.28125 -9.15625 12.140625 -9.03125 12.046875 -8.84375 C 11.972656 -8.664062 11.945312 -8.53125 11.96875 -8.4375 C 11.988281 -8.351562 12.097656 -8.320312 12.296875 -8.34375 C 12.796875 -8.394531 13.300781 -8.441406 13.8125 -8.484375 C 13.851562 -8.484375 13.890625 -8.488281 13.921875 -8.5 C 14.878906 -8.5625 15.832031 -8.582031 16.78125 -8.5625 C 17.726562 -8.550781 18.664062 -8.472656 19.59375 -8.328125 C 20 -8.253906 20.390625 -8.164062 20.765625 -8.0625 C 21.015625 -7.988281 21.253906 -7.882812 21.484375 -7.75 C 22.515625 -7.175781 22.707031 -6.296875 22.0625 -5.109375 C 21.863281 -4.710938 21.613281 -4.347656 21.3125 -4.015625 C 20.582031 -3.191406 19.773438 -2.453125 18.890625 -1.796875 C 18.140625 -1.234375 17.375 -0.703125 16.59375 -0.203125 C 16.5 -0.160156 16.398438 -0.101562 16.296875 -0.03125 C 16.253906 0.0078125 16.203125 0.0390625 16.140625 0.0625 C 16.203125 0.144531 16.253906 0.191406 16.296875 0.203125 C 16.347656 0.210938 16.40625 0.210938 16.46875 0.203125 C 16.46875 0.203125 16.472656 0.203125 16.484375 0.203125 C 16.628906 0.179688 16.773438 0.160156 16.921875 0.140625 L 16.9375 0.140625 C 17.03125 0.117188 17.128906 0.101562 17.234375 0.09375 C 17.671875 0.03125 18.113281 -0.03125 18.5625 -0.09375 C 21.1875 -0.457031 23.804688 -0.769531 26.421875 -1.03125 C 29.265625 -1.320312 32.117188 -1.535156 34.984375 -1.671875 C 35.890625 -1.722656 36.789062 -1.769531 37.6875 -1.8125 C 38.78125 -1.875 39.867188 -1.925781 40.953125 -1.96875 C 41.597656 -2 42.238281 -2.007812 42.875 -2 C 43.03125 -2.007812 43.191406 -2.015625 43.359375 -2.015625 C 43.472656 -2.015625 43.585938 -1.992188 43.703125 -1.953125 Z M 10.96875 -8.265625 C 10.976562 -8.273438 10.988281 -8.289062 11 -8.3125 C 11.019531 -8.34375 11.03125 -8.363281 11.03125 -8.375 C 11.03125 -8.394531 11.023438 -8.410156 11.015625 -8.421875 C 11.015625 -8.429688 11.003906 -8.445312 10.984375 -8.46875 C 10.984375 -8.46875 10.972656 -8.472656 10.953125 -8.484375 C 10.867188 -8.441406 10.789062 -8.375 10.71875 -8.28125 C 10.695312 -8.257812 10.691406 -8.238281 10.703125 -8.21875 C 10.710938 -8.195312 10.734375 -8.191406 10.765625 -8.203125 C 10.835938 -8.210938 10.90625 -8.234375 10.96875 -8.265625 Z M 11.671875 1.75 C 11.679688 1.738281 11.695312 1.734375 11.71875 1.734375 C 11.75 1.722656 11.78125 1.703125 11.8125 1.671875 C 11.851562 1.648438 11.878906 1.613281 11.890625 1.5625 C 11.859375 1.53125 11.835938 1.515625 11.828125 1.515625 C 11.816406 1.515625 11.804688 1.515625 11.796875 1.515625 C 9.671875 1.910156 7.546875 2.390625 5.421875 2.953125 C 4.378906 3.222656 3.351562 3.5625 2.34375 3.96875 C 2.3125 4 2.28125 4.015625 2.25 4.015625 C 2.0625 4.085938 1.90625 4.191406 1.78125 4.328125 C 1.738281 4.359375 1.71875 4.390625 1.71875 4.421875 C 1.71875 4.453125 1.742188 4.484375 1.796875 4.515625 C 1.878906 4.535156 1.972656 4.550781 2.078125 4.5625 C 2.429688 4.582031 2.785156 4.566406 3.140625 4.515625 C 3.441406 4.472656 3.742188 4.414062 4.046875 4.34375 C 6.648438 3.757812 9.191406 2.894531 11.671875 1.75 Z M 11.671875 1.75 "/></g></g></g><g fill="#bc6ff1" fill-opacity="1"><g transform="translate(127.221536, 43.176395)"><g><path d="M 0.015625 -1.078125 C -0.367188 -1.023438 -0.59375 -1.203125 -0.65625 -1.609375 C -0.71875 -2.097656 -0.519531 -3.003906 -0.0625 -4.328125 C -0.0390625 -4.378906 0.00390625 -4.410156 0.078125 -4.421875 C 0.316406 -4.453125 0.445312 -4.367188 0.46875 -4.171875 C 0.476562 -4.097656 0.472656 -4.007812 0.453125 -3.90625 C 0.429688 -3.863281 0.296875 -3.300781 0.046875 -2.21875 C 0.00390625 -2.03125 -0.0078125 -1.898438 0 -1.828125 C 0.0078125 -1.734375 0.0507812 -1.691406 0.125 -1.703125 C 0.425781 -1.742188 1.097656 -2.585938 2.140625 -4.234375 C 2.273438 -4.441406 2.421875 -4.554688 2.578125 -4.578125 C 2.804688 -4.609375 2.929688 -4.546875 2.953125 -4.390625 C 2.960938 -4.316406 2.929688 -4.054688 2.859375 -3.609375 C 2.742188 -3.015625 2.691406 -2.675781 2.703125 -2.59375 C 2.722656 -2.457031 2.773438 -2.394531 2.859375 -2.40625 C 3.085938 -2.4375 3.679688 -2.921875 4.640625 -3.859375 C 4.691406 -3.921875 4.738281 -3.953125 4.78125 -3.953125 C 4.882812 -3.972656 4.953125 -3.894531 4.984375 -3.71875 C 4.984375 -3.675781 4.972656 -3.632812 4.953125 -3.59375 C 4.441406 -3.039062 4.003906 -2.609375 3.640625 -2.296875 C 3.304688 -2.015625 3 -1.851562 2.71875 -1.8125 L 2.625 -1.796875 C 2.207031 -1.828125 1.960938 -2.128906 1.890625 -2.703125 C 1.492188 -2.242188 1.164062 -1.867188 0.90625 -1.578125 C 0.65625 -1.296875 0.359375 -1.128906 0.015625 -1.078125 Z M 0.015625 -1.078125 "/></g></g></g><g fill="#bc6ff1" fill-opacity="1"><g transform="translate(132.187162, 42.48707)"><g><path d="M 2.515625 -3.28125 C 2.640625 -3.4375 2.742188 -3.523438 2.828125 -3.546875 C 2.910156 -3.578125 2.96875 -3.570312 3 -3.53125 C 3.03125 -3.5 3.019531 -3.4375 2.96875 -3.34375 C 2.675781 -2.875 2.332031 -2.453125 1.9375 -2.078125 C 1.539062 -1.710938 1.113281 -1.46875 0.65625 -1.34375 C 0.207031 -1.226562 -0.109375 -1.445312 -0.296875 -2 C -0.441406 -2.539062 -0.257812 -3.710938 0.25 -5.515625 C 0.757812 -7.316406 1.148438 -8.785156 1.421875 -9.921875 C 1.441406 -10.023438 1.484375 -10.117188 1.546875 -10.203125 C 1.640625 -10.316406 1.753906 -10.359375 1.890625 -10.328125 C 1.941406 -10.316406 1.988281 -10.289062 2.03125 -10.25 C 2.082031 -10.207031 2.109375 -10.128906 2.109375 -10.015625 C 0.835938 -5.222656 0.257812 -2.632812 0.375 -2.25 C 0.488281 -1.863281 0.753906 -1.800781 1.171875 -2.0625 C 1.597656 -2.332031 1.914062 -2.582031 2.125 -2.8125 C 2.332031 -3.050781 2.460938 -3.207031 2.515625 -3.28125 Z M 2.515625 -3.28125 "/></g></g></g></svg>